# xmcd
#
# Track frame offsets:
# 150
# 12580
# 29110
# 40516
# 60151
# 74586
# 87180
# 97040
# 110522
# 125610
# 142327
#
# Disc length: 2072 seconds
#
#
# Revision: 0
# Processed by: cddbd v1.5.1PL2 Copyright (c) Steve Scherf et al.
# Submitted via: FreeRIP 2.945 
#
DISCID=9f08160b
DTITLE=Gene Watson - The Good Ole Days
DYEAR=1996
DGENRE=Country
TTITLE0=The Good Ole Days Are Right Now
TTITLE1=No Goodbyes
TTITLE2=You Pushed Me To The Limit
TTITLE3=Change Her Mind
TTITLE4=The Man That Broke Your Heart
TTITLE5=I Don't Need A Thing At All
TTITLE6=Speak Softly You're Talking To My Heart
TTITLE7=Somewhere Beyond NoWhere
TTITLE8=Love In The Hot Afternoon
TTITLE9=Getting Over You Again
TTITLE10=Where I'm Concerned
EXTD=
EXTT0=
EXTT1=
EXTT2=
EXTT3=
EXTT4=
EXTT5=
EXTT6=
EXTT7=
EXTT8=
EXTT9=
EXTT10=
PLAYORDER=
